<?xml version="1.0" encoding="UTF-8"?>
<svg id="Layer_2" data-name="Layer 2" xmlns="http://www.w3.org/2000/svg" viewBox="0 0 197.49 43.83">
  <g id="Layer_1-2" data-name="Layer 1">
    <g>
      <path d="M19.45,16.24l9,3.78c.83-.93,1.01-4.43.66-4.94l-10.73-4.72L.01,23.49V.63s26.01.01,26.01.01c3.38.06,6.31,1.62,8.82,3.82,7.64,6.7,7.58,18.51-.13,25.2-2.51,2.12-5.62,3.57-8.92,3.6l-6.36.03v-17.06Z"/>
      <polygon points="16.56 43.81 9.65 43.83 9.64 21.05 16.56 16.93 16.56 43.81"/>
      <polygon points="0 43.83 0 26.77 .87 26.28 6.8 22.69 6.81 43.83 0 43.83"/>
    </g>
    <g>
      <path d="M71.81,11.58V.59h8.24c.71,0,1.34.16,1.87.47.53.31.95.74,1.25,1.29s.45,1.17.45,1.89-.15,1.35-.46,1.9c-.3.55-.73.99-1.26,1.3-.54.31-1.17.47-1.9.47h-5.44v3.66h-2.75ZM74.56,5.73h4.66c.53,0,.95-.13,1.24-.38.29-.26.44-.61.44-1.07,0-.32-.06-.59-.19-.81-.13-.22-.32-.39-.57-.51s-.56-.18-.92-.18h-4.66v2.96Z"/>
      <path d="M85.4,1.86V0h2.51v1.86h-2.51ZM85.4,11.58V3.15h2.51v8.43h-2.51Z"/>
      <path d="M94,11.78c-.65,0-1.19-.08-1.61-.25-.42-.17-.73-.45-.94-.85-.2-.4-.3-.95-.3-1.64v-4.06h-1.62v-1.82h1.71l.5-2.48h1.92v2.48h2.32v1.82h-2.32v3.74c0,.41.08.71.23.91.15.2.49.3,1.02.3h1.07v1.57c-.15.05-.34.1-.58.14s-.49.07-.74.1c-.25.02-.47.03-.66.03Z"/>
      <path d="M101.88,11.78c-.65,0-1.19-.08-1.61-.25-.42-.17-.73-.45-.94-.85-.2-.4-.3-.95-.3-1.64v-4.06h-1.62v-1.82h1.71l.5-2.48h1.92v2.48h2.32v1.82h-2.32v3.74c0,.41.08.71.23.91.15.2.49.3,1.02.3h1.07v1.57c-.15.05-.34.1-.58.14s-.49.07-.74.1c-.25.02-.47.03-.66.03Z"/>
      <path d="M110.21,11.78c-.63,0-1.24-.05-1.82-.15s-1.1-.25-1.54-.46-.81-.47-1.07-.8-.4-.73-.4-1.18v-.13s0-.08.03-.11h2.56v.13c0,.26.11.46.32.61.21.15.49.26.83.33.34.07.7.1,1.09.1s.75-.02,1.11-.06c.36-.04.65-.13.89-.26.23-.13.35-.31.35-.54,0-.27-.14-.46-.41-.58-.27-.12-.66-.21-1.15-.26-.5-.06-1.09-.14-1.77-.23-.49-.07-.95-.17-1.38-.28s-.81-.26-1.14-.46c-.33-.19-.58-.44-.76-.74-.18-.3-.27-.67-.27-1.1,0-.47.11-.87.34-1.21s.54-.61.96-.82.91-.37,1.48-.46c.57-.1,1.2-.14,1.9-.14.61,0,1.18.05,1.72.14.54.1,1.01.24,1.41.44.4.2.72.45.96.75.24.3.36.65.36,1.05v.13s0,.07-.02.13h-2.58v-.1c0-.21-.09-.38-.26-.51-.18-.13-.41-.22-.7-.28-.29-.06-.6-.09-.93-.09-.12,0-.29,0-.53.02-.24.01-.48.04-.73.08-.25.04-.46.11-.63.21-.17.1-.26.23-.26.42,0,.21.13.38.4.49s.62.19,1.05.24c.43.05.9.1,1.4.17.53.08,1.04.16,1.54.26.49.1.92.24,1.3.42.37.19.67.44.88.76.21.32.32.74.32,1.26s-.11.98-.34,1.34c-.22.36-.55.65-.98.87-.43.22-.94.38-1.54.48-.6.1-1.26.14-2,.14Z"/>
      <path d="M122.78,11.78c-.67,0-1.29-.11-1.86-.34s-1.06-.62-1.46-1.18h-.13l-.21,1.33h-2.03V0h2.51v4.19h.13c.24-.28.52-.51.86-.69.34-.18.7-.32,1.1-.41.39-.09.79-.14,1.2-.14.84,0,1.58.16,2.22.47s1.13.8,1.5,1.45c.36.65.54,1.48.54,2.5s-.18,1.8-.54,2.46c-.36.66-.87,1.14-1.53,1.46-.66.32-1.42.48-2.28.48ZM122.1,9.78c.53,0,.98-.09,1.35-.27.37-.18.65-.44.85-.78s.3-.75.3-1.23v-.26c0-.47-.1-.87-.3-1.21s-.47-.6-.83-.78c-.36-.19-.8-.28-1.34-.28-.41,0-.77.05-1.08.16s-.58.26-.79.46c-.21.2-.38.44-.5.74s-.18.63-.18,1v.13c0,.48.1.9.3,1.26.2.36.49.63.86.81.38.18.83.27,1.35.27Z"/>
      <path d="M132.77,11.78c-1.2,0-2.1-.29-2.7-.86-.61-.57-.91-1.44-.91-2.6V3.15h2.51v4.77c0,.34.05.63.14.86.09.23.22.43.4.58.18.15.39.26.64.32.25.06.53.1.84.1.45,0,.86-.09,1.25-.27.38-.18.69-.44.93-.77.23-.33.35-.71.35-1.15V3.15h2.51v8.43h-2.02l-.18-1.42h-.14c-.31.41-.66.73-1.06.96-.39.23-.81.4-1.25.5s-.88.15-1.31.15Z"/>
      <path d="M141.17,11.58V3.15h2.02l.18,1.46h.14c.13-.31.31-.59.55-.84s.53-.45.86-.6c.34-.15.7-.22,1.1-.22.2,0,.4.02.59.05.19.03.37.07.53.13v2.1h-1.23c-.41,0-.75.07-1.02.2-.28.13-.51.32-.69.55-.18.23-.31.49-.39.77-.08.28-.12.57-.12.88v3.97h-2.51Z"/>
      <path d="M150.41,14.8c-.46,0-.89-.07-1.29-.21s-.72-.36-.97-.66c-.25-.3-.37-.69-.37-1.17,0-.43.15-.8.44-1.13.29-.33.68-.56,1.16-.71-.34-.16-.59-.38-.74-.66-.16-.28-.23-.58-.23-.9,0-.45.15-.83.46-1.16.3-.33.72-.52,1.24-.58-.44-.23-.78-.53-1.04-.87s-.38-.72-.38-1.11c0-.66.19-1.19.57-1.58.38-.39.93-.67,1.66-.84.73-.17,1.61-.26,2.64-.26.38,0,.74.02,1.08.05.34.03.66.08.97.14.52-.23.91-.49,1.17-.77.26-.28.41-.52.45-.74h2.34c-.01.41-.1.75-.27,1.04-.17.29-.42.53-.74.72-.32.19-.7.34-1.15.43.32.21.57.47.75.78.18.3.27.65.27,1.03,0,.62-.17,1.13-.51,1.52-.34.39-.83.68-1.46.86-.63.18-1.4.27-2.32.27h-2.18c-.32,0-.56.05-.73.16-.17.11-.25.26-.25.45s.08.34.23.46c.15.11.42.17.81.17h4.86c.85,0,1.5.24,1.94.72.44.48.66,1.08.66,1.81,0,.55-.14,1.04-.43,1.45-.29.41-.67.73-1.15.95-.48.22-1.01.34-1.58.34h-5.89ZM151.23,13.18h4.78c.17,0,.33-.03.46-.1.14-.07.25-.17.33-.3.08-.13.12-.28.12-.46,0-.28-.09-.49-.26-.63s-.39-.22-.65-.22h-4.72c-.28,0-.51.07-.69.21-.18.14-.27.35-.27.62s.08.48.26.64c.17.16.38.24.64.24ZM153.55,6.75c.73,0,1.3-.08,1.71-.24.42-.16.62-.45.62-.86s-.21-.72-.62-.89c-.42-.17-.99-.25-1.71-.25s-1.28.08-1.7.25c-.42.17-.63.46-.63.89,0,.28.1.5.29.66.19.17.46.28.81.34.35.06.76.1,1.24.1Z"/>
      <path d="M160.95,11.58V0h2.51v4.27h.11c.3-.34.63-.61.99-.79s.74-.32,1.14-.4c.4-.08.8-.12,1.19-.12.79,0,1.45.13,1.98.38.53.25.94.63,1.21,1.14.27.51.41,1.16.41,1.94v5.17h-2.5v-4.78c0-.32-.05-.6-.14-.84-.1-.24-.23-.43-.4-.58-.17-.15-.38-.26-.63-.33-.25-.07-.53-.1-.84-.1-.45,0-.87.09-1.26.28s-.7.44-.93.77c-.23.33-.34.71-.34,1.14v4.45h-2.51Z"/>
      <path d="M71.81,27.58v-10.99h4.3l2.26,5.3c.08.18.18.42.3.73.11.3.23.62.35.94.12.33.23.62.33.89h.11c.08-.25.19-.52.3-.83.12-.31.24-.62.36-.93.12-.31.23-.57.31-.78l2.26-5.31h4.19v10.99h-2.75v-6.97c0-.25,0-.49.02-.73.02-.23.02-.44.02-.62h-.13c-.05.18-.12.39-.21.64-.08.25-.17.49-.26.74-.09.25-.18.46-.26.64l-2.7,6.3h-2.62l-2.72-6.3c-.11-.25-.21-.49-.3-.74s-.18-.49-.25-.71c-.07-.22-.13-.41-.18-.56h-.13c0,.14.02.32.02.54,0,.22.01.46.02.72,0,.26,0,.51,0,.77v6.29h-2.64Z"/>
      <path d="M92.96,27.78c-.51,0-.99-.04-1.42-.12-.44-.08-.82-.21-1.15-.4-.33-.19-.59-.44-.78-.76-.19-.32-.28-.73-.28-1.22,0-.67.18-1.2.55-1.59.37-.39.89-.67,1.58-.85.68-.18,1.48-.29,2.39-.33s1.91-.06,2.98-.06v-.3c0-.35-.09-.63-.26-.83-.17-.2-.43-.35-.78-.44s-.79-.14-1.34-.14c-.43,0-.81.03-1.16.09s-.62.15-.82.27c-.2.12-.3.28-.3.47v.18h-2.51s-.02-.09-.02-.13c0-.04,0-.09,0-.14,0-.5.19-.94.56-1.31s.93-.67,1.67-.88c.74-.21,1.66-.32,2.76-.32,1.02,0,1.88.09,2.58.27.7.18,1.23.48,1.59.9.36.42.54.97.54,1.66v3.54c0,.19.04.34.12.45.08.11.22.16.41.16h.83v1.55c-.12.05-.33.11-.63.18-.3.07-.64.1-1,.1-.49,0-.88-.06-1.16-.18-.28-.12-.49-.27-.62-.46-.13-.19-.22-.4-.27-.64h-.13c-.3.27-.65.5-1.06.69-.41.19-.86.34-1.34.44s-.99.15-1.53.15ZM93.61,26c.31,0,.65-.03,1.01-.1.36-.07.71-.17,1.05-.3.34-.13.61-.3.83-.51.22-.21.33-.45.33-.71v-.46c-1.14,0-2.08.04-2.82.13s-1.29.22-1.65.4c-.36.18-.54.44-.54.77,0,.22.09.39.26.5.18.11.4.19.68.23s.56.06.85.06Z"/>
      <path d="M102.24,17.86v-1.86h2.51v1.86h-2.51ZM102.24,27.58v-8.43h2.51v8.43h-2.51Z"/>
      <path d="M107.19,27.58v-8.43h2.02l.18,1.42h.14c.3-.41.64-.73,1.04-.96.39-.23.81-.4,1.26-.5.44-.1.88-.15,1.32-.15.79,0,1.45.13,1.98.38.53.25.94.63,1.21,1.14.27.51.41,1.16.41,1.94v5.17h-2.5v-4.78c0-.32-.05-.6-.14-.84-.1-.24-.23-.43-.4-.58-.17-.15-.38-.26-.63-.33-.25-.07-.53-.1-.84-.1-.45,0-.87.09-1.26.28s-.7.44-.93.77c-.23.33-.34.71-.34,1.14v4.45h-2.51Z"/>
      <path d="M122.74,27.78c-.65,0-1.19-.08-1.61-.25-.42-.17-.73-.45-.94-.85-.2-.4-.3-.95-.3-1.64v-4.06h-1.62v-1.82h1.71l.5-2.48h1.92v2.48h2.32v1.82h-2.32v3.74c0,.41.08.71.23.91.15.2.49.3,1.02.3h1.07v1.57c-.15.05-.34.1-.58.14s-.49.07-.74.1c-.25.02-.47.03-.66.03Z"/>
      <path d="M131.56,27.78c-1.12,0-2.09-.16-2.9-.47-.81-.31-1.44-.8-1.88-1.45-.44-.65-.66-1.48-.66-2.48s.22-1.81.65-2.46c.43-.65,1.05-1.14,1.86-1.46.81-.33,1.75-.49,2.84-.49s2.09.16,2.89.48c.79.32,1.39.79,1.8,1.42.41.63.61,1.41.61,2.34v.74h-8.02c.03.49.17.89.4,1.2.23.31.56.53.98.66.42.13.92.19,1.5.19.26,0,.53-.03.81-.08.28-.05.55-.13.79-.24.25-.11.45-.25.62-.42.17-.17.27-.37.29-.61h2.58c0,.46-.12.88-.37,1.26-.25.38-.59.71-1.03.99-.44.28-.98.49-1.62.65s-1.35.23-2.14.23ZM128.75,22.43h5.36c0-.28-.07-.53-.21-.74-.14-.22-.33-.4-.56-.54-.23-.14-.51-.24-.82-.31-.31-.07-.64-.1-.99-.1-.53,0-1,.06-1.4.19-.4.13-.71.32-.94.58-.23.26-.38.57-.44.93Z"/>
      <path d="M138.87,27.58v-8.43h2.02l.18,1.42h.14c.3-.41.64-.73,1.04-.96.39-.23.81-.4,1.26-.5.44-.1.88-.15,1.32-.15.79,0,1.45.13,1.98.38.53.25.94.63,1.21,1.14.27.51.41,1.16.41,1.94v5.17h-2.5v-4.78c0-.32-.05-.6-.14-.84-.1-.24-.23-.43-.4-.58-.17-.15-.38-.26-.63-.33-.25-.07-.53-.1-.84-.1-.45,0-.87.09-1.26.28s-.7.44-.93.77c-.23.33-.34.71-.34,1.14v4.45h-2.51Z"/>
      <path d="M154.04,27.78c-.51,0-.99-.04-1.42-.12-.44-.08-.82-.21-1.15-.4-.33-.19-.59-.44-.78-.76-.19-.32-.28-.73-.28-1.22,0-.67.18-1.2.55-1.59.37-.39.89-.67,1.58-.85.68-.18,1.48-.29,2.39-.33s1.91-.06,2.98-.06v-.3c0-.35-.09-.63-.26-.83-.17-.2-.43-.35-.78-.44s-.79-.14-1.34-.14c-.43,0-.81.03-1.16.09s-.62.15-.82.27c-.2.12-.3.28-.3.47v.18h-2.51s-.02-.09-.02-.13c0-.04,0-.09,0-.14,0-.5.19-.94.56-1.31s.93-.67,1.67-.88c.74-.21,1.66-.32,2.76-.32,1.02,0,1.88.09,2.58.27.7.18,1.23.48,1.59.9.36.42.54.97.54,1.66v3.54c0,.19.04.34.12.45.08.11.22.16.41.16h.83v1.55c-.12.05-.33.11-.63.18-.3.07-.64.1-1,.1-.49,0-.88-.06-1.16-.18-.28-.12-.49-.27-.62-.46-.13-.19-.22-.4-.27-.64h-.13c-.3.27-.65.5-1.06.69-.41.19-.86.34-1.34.44s-.99.15-1.53.15ZM154.7,26c.31,0,.65-.03,1.01-.1.36-.07.71-.17,1.05-.3.34-.13.61-.3.83-.51.22-.21.33-.45.33-.71v-.46c-1.14,0-2.08.04-2.82.13s-1.29.22-1.65.4c-.36.18-.54.44-.54.77,0,.22.09.39.26.5.18.11.4.19.68.23s.56.06.85.06Z"/>
      <path d="M163.29,27.58v-8.43h2.02l.18,1.42h.14c.3-.41.64-.73,1.04-.96.39-.23.81-.4,1.26-.5.44-.1.88-.15,1.32-.15.79,0,1.45.13,1.98.38.53.25.94.63,1.21,1.14.27.51.41,1.16.41,1.94v5.17h-2.5v-4.78c0-.32-.05-.6-.14-.84-.1-.24-.23-.43-.4-.58-.17-.15-.38-.26-.63-.33-.25-.07-.53-.1-.84-.1-.45,0-.87.09-1.26.28s-.7.44-.93.77c-.23.33-.34.71-.34,1.14v4.45h-2.51Z"/>
      <path d="M180.18,27.78c-1.11,0-2.06-.16-2.86-.49-.79-.33-1.41-.82-1.84-1.47-.43-.66-.65-1.47-.65-2.46s.21-1.8.64-2.45,1.04-1.14,1.85-1.47c.8-.33,1.76-.5,2.86-.5.69,0,1.34.07,1.95.22.61.15,1.14.37,1.61.67.46.3.82.66,1.08,1.1s.38.94.38,1.53h-2.53c0-.36-.11-.67-.34-.92-.22-.25-.53-.44-.9-.57-.38-.13-.8-.19-1.26-.19-.59,0-1.08.1-1.5.29-.41.19-.72.47-.93.82s-.31.79-.31,1.3v.32c0,.5.11.93.33,1.3.22.36.54.64.96.83.42.19.94.29,1.54.29.45,0,.86-.07,1.24-.21.38-.14.69-.34.92-.59.24-.26.35-.55.35-.88h2.42c0,.59-.13,1.1-.38,1.54-.26.44-.61.81-1.07,1.1-.46.29-1,.51-1.61.66s-1.27.22-1.96.22Z"/>
      <path d="M192.29,27.78c-1.12,0-2.09-.16-2.9-.47-.81-.31-1.44-.8-1.88-1.45-.44-.65-.66-1.48-.66-2.48s.22-1.81.65-2.46c.43-.65,1.05-1.14,1.86-1.46.81-.33,1.75-.49,2.84-.49s2.09.16,2.89.48c.79.32,1.39.79,1.8,1.42.41.63.61,1.41.61,2.34v.74h-8.02c.03.49.17.89.4,1.2.23.31.56.53.98.66.42.13.92.19,1.5.19.26,0,.53-.03.81-.08.28-.05.55-.13.79-.24.25-.11.45-.25.62-.42.17-.17.27-.37.29-.61h2.58c0,.46-.12.88-.37,1.26-.25.38-.59.71-1.03.99-.44.28-.98.49-1.62.65s-1.35.23-2.14.23ZM189.47,22.43h5.36c0-.28-.07-.53-.21-.74-.14-.22-.33-.4-.56-.54-.23-.14-.51-.24-.82-.31-.31-.07-.64-.1-.99-.1-.53,0-1,.06-1.4.19-.4.13-.71.32-.94.58-.23.26-.38.57-.44.93Z"/>
      <path d="M77.38,43.78c-.86,0-1.67-.05-2.41-.15s-1.39-.29-1.96-.55c-.57-.27-1-.63-1.31-1.1-.31-.47-.46-1.08-.46-1.82,0-.02,0-.05,0-.08,0-.03,0-.06.02-.08h2.72s-.03.09-.03.14v.19c0,.32.13.58.4.78s.65.35,1.16.43c.51.09,1.09.13,1.75.13.29,0,.58-.01.87-.03.29-.02.58-.06.85-.1.27-.05.51-.11.73-.2.21-.09.38-.19.51-.33s.19-.29.19-.47c0-.27-.12-.47-.37-.62-.25-.15-.58-.27-1.01-.37-.43-.1-.9-.18-1.43-.26-.53-.07-1.07-.15-1.64-.24s-1.11-.21-1.64-.36c-.53-.15-1-.36-1.42-.61-.42-.25-.76-.57-1.01-.97s-.38-.88-.38-1.46c0-.54.13-1.02.4-1.42.27-.4.65-.74,1.15-1.01.5-.27,1.11-.48,1.82-.62.71-.14,1.51-.21,2.39-.21s1.69.07,2.38.22c.69.14,1.28.35,1.75.63.47.28.83.61,1.06,1.01.23.4.35.84.35,1.34v.26h-2.67v-.18c0-.23-.11-.44-.34-.62s-.55-.32-.96-.42c-.41-.11-.89-.16-1.43-.16-.71,0-1.3.05-1.74.14-.45.09-.78.21-.99.37-.21.15-.32.32-.32.5,0,.23.12.42.37.56.25.14.58.25,1.01.34.43.09.9.16,1.43.23.53.07,1.07.15,1.64.24.57.09,1.11.21,1.64.37.53.15,1,.36,1.42.61.42.25.76.57,1.01.95.25.38.38.85.38,1.41,0,.86-.25,1.56-.75,2.08-.5.52-1.19.9-2.07,1.14-.88.24-1.9.36-3.05.36Z"/>
      <path d="M90.43,43.78c-1.09,0-2.03-.16-2.83-.49s-1.42-.82-1.85-1.48c-.43-.66-.65-1.48-.65-2.45s.22-1.8.65-2.45c.43-.65,1.05-1.14,1.85-1.46.8-.33,1.74-.49,2.83-.49s2.04.16,2.84.49c.79.33,1.41.81,1.84,1.46.43.65.65,1.47.65,2.45s-.22,1.79-.65,2.45c-.43.66-1.04,1.15-1.84,1.48s-1.74.49-2.84.49ZM90.43,41.94c.59,0,1.08-.09,1.49-.28.41-.19.71-.46.93-.83.21-.37.32-.8.32-1.3v-.32c0-.51-.11-.95-.32-1.3-.21-.36-.52-.63-.93-.82-.41-.19-.9-.29-1.49-.29s-1.08.1-1.49.29c-.41.19-.71.47-.93.82-.21.36-.32.79-.32,1.3v.32c0,.5.11.94.32,1.3.21.37.52.65.93.83.41.19.9.28,1.49.28Z"/>
      <path d="M97.82,43.58v-11.58h2.51v11.58h-2.51Z"/>
      <path d="M106.35,43.78c-1.2,0-2.1-.29-2.7-.86-.61-.57-.91-1.44-.91-2.6v-5.17h2.51v4.77c0,.34.05.63.14.86.09.23.22.43.4.58.18.15.39.26.64.32.25.06.53.1.84.1.45,0,.86-.09,1.25-.27.38-.18.69-.44.93-.77.23-.33.35-.71.35-1.15v-4.43h2.51v8.43h-2.02l-.18-1.42h-.14c-.31.41-.66.73-1.06.96-.39.23-.81.4-1.25.5s-.88.15-1.31.15Z"/>
      <path d="M118.4,43.78c-.65,0-1.19-.08-1.61-.25-.42-.17-.73-.45-.94-.85-.2-.4-.3-.95-.3-1.64v-4.06h-1.62v-1.82h1.71l.5-2.48h1.92v2.48h2.32v1.82h-2.32v3.74c0,.41.08.71.23.91.15.2.49.3,1.02.3h1.07v1.57c-.15.05-.34.1-.58.14s-.49.07-.74.1c-.25.02-.47.03-.66.03Z"/>
      <path d="M122.44,33.86v-1.86h2.51v1.86h-2.51ZM122.44,43.58v-8.43h2.51v8.43h-2.51Z"/>
      <path d="M132.36,43.78c-1.09,0-2.03-.16-2.83-.49s-1.42-.82-1.85-1.48c-.43-.66-.65-1.48-.65-2.45s.22-1.8.65-2.45c.43-.65,1.05-1.14,1.85-1.46.8-.33,1.74-.49,2.83-.49s2.04.16,2.84.49c.79.33,1.41.81,1.84,1.46.43.65.65,1.47.65,2.45s-.22,1.79-.65,2.45c-.43.66-1.04,1.15-1.84,1.48s-1.74.49-2.84.49ZM132.36,41.94c.59,0,1.08-.09,1.49-.28.41-.19.71-.46.93-.83.21-.37.32-.8.32-1.3v-.32c0-.51-.11-.95-.32-1.3-.21-.36-.52-.63-.93-.82-.41-.19-.9-.29-1.49-.29s-1.08.1-1.49.29c-.41.19-.71.47-.93.82-.21.36-.32.79-.32,1.3v.32c0,.5.11.94.32,1.3.21.37.52.65.93.83.41.19.9.28,1.49.28Z"/>
      <path d="M139.74,43.58v-8.43h2.02l.18,1.42h.14c.3-.41.64-.73,1.04-.96.39-.23.81-.4,1.26-.5.44-.1.88-.15,1.32-.15.79,0,1.45.13,1.98.38.53.25.94.63,1.21,1.14.27.51.41,1.16.41,1.94v5.17h-2.5v-4.78c0-.32-.05-.6-.14-.84-.1-.24-.23-.43-.4-.58-.17-.15-.38-.26-.63-.33-.25-.07-.53-.1-.84-.1-.45,0-.87.09-1.26.28s-.7.44-.93.77c-.23.33-.34.71-.34,1.14v4.45h-2.51Z"/>
      <path d="M156.01,43.78c-.63,0-1.24-.05-1.82-.15s-1.1-.25-1.54-.46-.81-.47-1.07-.8-.4-.73-.4-1.18v-.13s0-.08.03-.11h2.56v.13c0,.26.11.46.32.61.21.15.49.26.83.33.34.07.7.1,1.09.1s.75-.02,1.11-.06c.36-.04.65-.13.89-.26.23-.13.35-.31.35-.54,0-.27-.14-.46-.41-.58-.27-.12-.66-.21-1.15-.26-.5-.06-1.09-.14-1.77-.23-.49-.07-.95-.17-1.38-.28s-.81-.26-1.14-.46c-.33-.19-.58-.44-.76-.74-.18-.3-.27-.67-.27-1.1,0-.47.11-.87.34-1.21s.54-.61.96-.82.91-.37,1.48-.46c.57-.1,1.2-.14,1.9-.14.61,0,1.18.05,1.72.14.54.1,1.01.24,1.41.44.4.2.72.45.96.75.24.3.36.65.36,1.05v.13s0,.07-.02.13h-2.58v-.1c0-.21-.09-.38-.26-.51-.18-.13-.41-.22-.7-.28-.29-.06-.6-.09-.93-.09-.12,0-.29,0-.53.02-.24.01-.48.04-.73.08-.25.04-.46.11-.63.21-.17.1-.26.23-.26.42,0,.21.13.38.4.49s.62.19,1.05.24c.43.05.9.1,1.4.17.53.08,1.04.16,1.54.26.49.1.92.24,1.3.42.37.19.67.44.88.76.21.32.32.74.32,1.26s-.11.98-.34,1.34c-.22.36-.55.65-.98.87-.43.22-.94.38-1.54.48-.6.1-1.26.14-2,.14Z"/>
    </g>
    <rect x="55.69" y=".63" width="1" height="43.2"/>
  </g>
</svg>